<svg xmlns="http://www.w3.org/2000/svg" version="1.1" xmlns:xlink="http://www.w3.org/1999/xlink" xmlns:svgjs="http://svgjs.com/svgjs" width="1440" height="560" preserveAspectRatio="none" viewBox="0 0 1440 560"><g mask="url(&quot;#SvgjsMask1002&quot;)" fill="none"><rect width="1440" height="560" x="0" y="0" fill="url(#SvgjsLinearGradient1003)"></rect><path d="M1440 0L1261.55 0L1440 25.82z" fill="rgba(255, 255, 255, .1)"></path><path d="M1261.55 0L1440 25.82L1440 145.88L725.87 0z" fill="rgba(255, 255, 255, .075)"></path><path d="M725.8700000000001 0L1440 145.88L1440 157.4L543.0500000000002 0z" fill="rgba(255, 255, 255, .05)"></path><path d="M543.0500000000002 0L1440 157.4L1440 240.93L426.4800000000002 0z" fill="rgba(255, 255, 255, .025)"></path><path d="M0 560L713.1 560L0 443.73z" fill="rgba(0, 0, 0, .1)"></path><path d="M0 443.73L713.1 560L953.48 560L0 208.07000000000002z" fill="rgba(0, 0, 0, .075)"></path><path d="M0 208.07L953.48 560L1147.15 560L0 85.99z" fill="rgba(0, 0, 0, .05)"></path><path d="M0 85.99000000000001L1147.15 560L1276.5700000000002 560L0 56.400000000000006z" fill="rgba(0, 0, 0, .025)"></path></g><defs><mask id="SvgjsMask1002"><rect width="1440" height="560" fill="#ffffff"></rect></mask><linearGradient x1="15.28%" y1="-39.29%" x2="84.72%" y2="139.29%" gradientUnits="userSpaceOnUse" id="SvgjsLinearGradient1003"><stop stop-color="#0e2a47" offset="0"></stop><stop stop-color="#00459e" offset="1"></stop></linearGradient></defs></svg>